<svg width="71" height="113" viewBox="0 0 71 113" fill="none" xmlns="http://www.w3.org/2000/svg">
<path fill-rule="evenodd" clip-rule="evenodd" d="M41.866 0.224121C41.8659 0.224121 41.8659 0.224121 41.8659 0.224121C18.744 0.224121 0 18.9681 0 42.09C0 65.2119 18.744 83.9559 41.8659 83.9559C41.8659 83.9559 41.8659 83.9559 41.866 83.9559V0.224121Z" fill="#303030"/>
<path d="M41.866 9.98364C24.1341 9.98364 9.75964 24.3581 9.75964 42.09C9.75964 59.8218 24.1341 74.1963 41.866 74.1963" stroke="#26D5CE"/>
<path fill-rule="evenodd" clip-rule="evenodd" d="M41.866 112.876C41.866 112.876 41.866 112.876 41.866 112.876C57.838 112.876 70.7859 99.9279 70.7859 83.9559C70.7859 67.9839 57.838 55.036 41.866 55.036L41.866 112.876Z" fill="#26D5CE"/>
</svg>
